HIERARCHY
ROOT Hips
{
	OFFSET 0.000000 100.481300 0.000000
	CHANNELS 6 Xposition Yposition Zposition Xrotation Yrotation Zrotation
	JOINT Spine
	{
		OFFSET -0.279200 12.230698 -2.892100
		CHANNELS 3 Xrotation Yrotation Zrotation
		JOINT Spine1
		{
			OFFSET -0.325700 14.269203 -3.374200
			CHANNELS 3 Xrotation Yrotation Zrotation
			JOINT Spine2
			{
				OFFSET -0.372300 16.307602 -0.352600
				CHANNELS 3 Xrotation Yrotation Zrotation
				JOINT Neck
				{
					OFFSET -0.418800 17.814194 8.416900
					CHANNELS 3 Xrotation Yrotation Zrotation
					JOINT Head
					{
						OFFSET 0.000000 7.031097 3.806800
						CHANNELS 3 Xrotation Yrotation Zrotation
						JOINT HeadTop_End
						{
							OFFSET 0.000000 24.646606 12.978600
							CHANNELS 3 Xrotation Yrotation Zrotation
							End Site
							{
								OFFSET 0.000000 27.854965 0.000000
							}
						}
					}
				}
				JOINT LeftShoulder
				{
					OFFSET 16.952999 14.495407 -7.737500
					CHANNELS 3 Xrotation Yrotation Zrotation
					JOINT LeftArm
					{
						OFFSET 9.308998 -2.777710 0.208600
						CHANNELS 3 Xrotation Yrotation Zrotation
						JOINT LeftForeArm
						{
							OFFSET 29.972298 0.000000 0.000000
							CHANNELS 3 Xrotation Yrotation Zrotation
							JOINT LeftHand
							{
								OFFSET 26.026505 0.000000 0.000000
								CHANNELS 3 Xrotation Yrotation Zrotation
								JOINT LeftHandThumb1
								{
									OFFSET 12.240501 -7.147949 9.207150
									CHANNELS 3 Xrotation Yrotation Zrotation
									JOINT LeftHandThumb2
									{
										OFFSET 4.138618 -2.389435 2.389433
										CHANNELS 3 Xrotation Yrotation Zrotation
										JOINT LeftHandThumb3
										{
											OFFSET 2.726913 -1.574387 1.574386
											CHANNELS 3 Xrotation Yrotation Zrotation
											JOINT LeftHandThumb4
											{
												OFFSET 3.941010 -2.275345 2.275342
												CHANNELS 3 Xrotation Yrotation Zrotation
												End Site
												{
													OFFSET -0.005798 5.087799 0.009903
												}
											}
										}
									}
								}
								JOINT LeftHandIndex1
								{
									OFFSET 24.424698 -1.985611 5.953459
									CHANNELS 3 Xrotation Yrotation Zrotation
									JOINT LeftHandIndex2
									{
										OFFSET 6.426697 0.000000 0.000000
										CHANNELS 3 Xrotation Yrotation Zrotation
										JOINT LeftHandIndex3
										{
											OFFSET 5.337898 0.000000 0.000000
											CHANNELS 3 Xrotation Yrotation Zrotation
											JOINT LeftHandIndex4
											{
												OFFSET 4.409401 0.000000 0.000000
												CHANNELS 3 Xrotation Yrotation Zrotation
												End Site
												{
													OFFSET 0.000000 4.409363 0.014373
												}
											}
										}
									}
								}
								JOINT LeftHandMiddle1
								{
									OFFSET 23.810104 0.000000 0.000000
									CHANNELS 3 Xrotation Yrotation Zrotation
									JOINT LeftHandMiddle2
									{
										OFFSET 7.176498 0.000000 0.000000
										CHANNELS 3 Xrotation Yrotation Zrotation
										JOINT LeftHandMiddle3
										{
											OFFSET 6.774902 0.000000 0.000000
											CHANNELS 3 Xrotation Yrotation Zrotation
											JOINT LeftHandMiddle4
											{
												OFFSET 5.403328 0.000000 0.000000
												CHANNELS 3 Xrotation Yrotation Zrotation
												End Site
												{
													OFFSET -0.027702 5.403244 0.017414
												}
											}
										}
									}
								}
								JOINT LeftHandRing1
								{
									OFFSET 22.908401 -0.839279 -6.020567
									CHANNELS 3 Xrotation Yrotation Zrotation
									JOINT LeftHandRing2
									{
										OFFSET 6.337502 0.000000 0.000000
										CHANNELS 3 Xrotation Yrotation Zrotation
										JOINT LeftHandRing3
										{
											OFFSET 5.779297 0.000000 0.000000
											CHANNELS 3 Xrotation Yrotation Zrotation
											JOINT LeftHandRing4
											{
												OFFSET 4.965698 0.000000 0.000000
												CHANNELS 3 Xrotation Yrotation Zrotation
												End Site
												{
													OFFSET 0.000000 4.965668 0.016186
												}
											}
										}
									}
								}
								JOINT LeftHandPinky1
								{
									OFFSET 20.037003 -1.530319 -10.950146
									CHANNELS 3 Xrotation Yrotation Zrotation
									JOINT LeftHandPinky2
									{
										OFFSET 5.254700 0.000000 0.000000
										CHANNELS 3 Xrotation Yrotation Zrotation
										JOINT LeftHandPinky3
										{
											OFFSET 4.810204 0.000000 0.000000
											CHANNELS 3 Xrotation Yrotation Zrotation
											JOINT LeftHandPinky4
											{
												OFFSET 3.647202 0.000000 0.000000
												CHANNELS 3 Xrotation Yrotation Zrotation
												End Site
												{
													OFFSET 0.000000 3.647186 0.011889
												}
											}
										}
									}
								}
							}
						}
					}
				}
				JOINT RightShoulder
				{
					OFFSET -15.141001 14.495407 -7.737500
					CHANNELS 3 Xrotation Yrotation Zrotation
					JOINT RightArm
					{
						OFFSET -9.308998 -2.777710 0.208500
						CHANNELS 3 Xrotation Yrotation Zrotation
						JOINT RightForeArm
						{
							OFFSET -29.972300 0.000000 0.000000
							CHANNELS 3 Xrotation Yrotation Zrotation
							JOINT RightHand
							{
								OFFSET -26.026505 0.000000 0.000000
								CHANNELS 3 Xrotation Yrotation Zrotation
								JOINT RightHandThumb1
								{
									OFFSET -12.240601 -7.148026 9.207092
									CHANNELS 3 Xrotation Yrotation Zrotation
									JOINT RightHandThumb2
									{
										OFFSET -4.138618 -2.389435 2.389433
										CHANNELS 3 Xrotation Yrotation Zrotation
										JOINT RightHandThumb3
										{
											OFFSET -2.726974 -1.574417 1.574421
											CHANNELS 3 Xrotation Yrotation Zrotation
											JOINT RightHandThumb4
											{
												OFFSET -3.941010 -2.275345 2.275343
												CHANNELS 3 Xrotation Yrotation Zrotation
												End Site
												{
													OFFSET 0.005814 5.087799 0.009927
												}
											}
										}
									}
								}
								JOINT RightHandIndex1
								{
									OFFSET -24.424698 -1.985657 5.953444
									CHANNELS 3 Xrotation Yrotation Zrotation
									JOINT RightHandIndex2
									{
										OFFSET -6.426697 0.000000 0.000000
										CHANNELS 3 Xrotation Yrotation Zrotation
										JOINT RightHandIndex3
										{
											OFFSET -5.337898 0.000000 0.000000
											CHANNELS 3 Xrotation Yrotation Zrotation
											JOINT RightHandIndex4
											{
												OFFSET -4.409401 0.000000 0.000000
												CHANNELS 3 Xrotation Yrotation Zrotation
												End Site
												{
													OFFSET 0.000000 4.409363 0.014408
												}
											}
										}
									}
								}
								JOINT RightHandMiddle1
								{
									OFFSET -23.810097 0.000000 0.000000
									CHANNELS 3 Xrotation Yrotation Zrotation
									JOINT RightHandMiddle2
									{
										OFFSET -7.176498 0.000000 0.000000
										CHANNELS 3 Xrotation Yrotation Zrotation
										JOINT RightHandMiddle3
										{
											OFFSET -6.774902 0.000000 0.000000
											CHANNELS 3 Xrotation Yrotation Zrotation
											JOINT RightHandMiddle4
											{
												OFFSET -5.403328 0.000000 0.000000
												CHANNELS 3 Xrotation Yrotation Zrotation
												End Site
												{
													OFFSET 0.027702 5.403244 0.017457
												}
											}
										}
									}
								}
								JOINT RightHandRing1
								{
									OFFSET -22.908302 -0.839325 -6.020576
									CHANNELS 3 Xrotation Yrotation Zrotation
									JOINT RightHandRing2
									{
										OFFSET -6.337502 0.000000 0.000000
										CHANNELS 3 Xrotation Yrotation Zrotation
										JOINT RightHandRing3
										{
											OFFSET -5.779297 0.000000 0.000000
											CHANNELS 3 Xrotation Yrotation Zrotation
											JOINT RightHandRing4
											{
												OFFSET -4.965698 0.000000 0.000000
												CHANNELS 3 Xrotation Yrotation Zrotation
												End Site
												{
													OFFSET 0.000000 4.965668 0.016226
												}
											}
										}
									}
								}
								JOINT RightHandPinky1
								{
									OFFSET -20.037003 -1.530334 -10.950259
									CHANNELS 3 Xrotation Yrotation Zrotation
									JOINT RightHandPinky2
									{
										OFFSET -5.254700 0.000000 0.000000
										CHANNELS 3 Xrotation Yrotation Zrotation
										JOINT RightHandPinky3
										{
											OFFSET -4.810204 0.000000 0.000000
											CHANNELS 3 Xrotation Yrotation Zrotation
											JOINT RightHandPinky4
											{
												OFFSET -3.647202 0.000000 0.000000
												CHANNELS 3 Xrotation Yrotation Zrotation
												End Site
												{
													OFFSET 0.000000 3.647186 0.011917
												}
											}
										}
									}
								}
							}
						}
					}
				}
			}
		}
	}
	JOINT LeftUpLeg
	{
		OFFSET 15.427100 -6.655098 0.678600
		CHANNELS 3 Xrotation Yrotation Zrotation
		JOINT LeftLeg
		{
			OFFSET 4.081073 -39.591068 13.024000
			CHANNELS 3 Xrotation Yrotation Zrotation
			JOINT LeftFoot
			{
				OFFSET -4.081074 -37.707932 -15.979700
				CHANNELS 3 Xrotation Yrotation Zrotation
				JOINT LeftToeBase
				{
					OFFSET 5.346399 -15.068900 20.645000
					CHANNELS 3 Xrotation Yrotation Zrotation
					JOINT LeftToe_End
					{
						OFFSET 2.754700 0.931300 11.300900
						CHANNELS 3 Xrotation Yrotation Zrotation
						End Site
						{
							OFFSET 0.000000 11.669021 0.000000
						}
					}
				}
			}
		}
	}
	JOINT RightUpLeg
	{
		OFFSET -15.569500 -6.655098 0.678600
		CHANNELS 3 Xrotation Yrotation Zrotation
		JOINT RightLeg
		{
			OFFSET -4.081825 -39.591045 13.023800
			CHANNELS 3 Xrotation Yrotation Zrotation
			JOINT RightFoot
			{
				OFFSET 4.081824 -37.707954 -15.979600
				CHANNELS 3 Xrotation Yrotation Zrotation
				JOINT RightToeBase
				{
					OFFSET -5.346400 -15.068900 20.645000
					CHANNELS 3 Xrotation Yrotation Zrotation
					JOINT RightToe_End
					{
						OFFSET -2.754700 0.931300 11.300900
						CHANNELS 3 Xrotation Yrotation Zrotation
						End Site
						{
							OFFSET 0.000000 11.669021 0.000000
						}
					}
				}
			}
		}
	}
}
MOTION
Frames: 4
Frame Time: 0.033333
0.325092 83.376633 -3.655437 -7.235223 -36.170182 12.105849 2.123807 0.654004 0.543807 4.221800 0.719708 2.957336 4.221802 0.719713 2.957337 2.353448 25.356012 -5.580627 -5.229853 10.268735 -3.191321 -0.000000 -0.000000 0.000000 -19.582876 6.427525 -1.624967 -0.837658 -24.612170 -79.217265 -32.314168 -69.780436 -33.805263 -98.237129 -30.743532 19.111429 3.057454 1.541406 -4.054967 1.252883 4.302579 1.889372 -0.000003 0.000000 -0.000001 -0.000000 -0.000001 0.000000 7.554888 5.560383 -33.410386 -14.917808 -6.767409 -80.641885 -0.000004 -0.000016 -0.000002 0.000003 -0.000000 -0.000001 -0.349210 -1.566801 -62.979235 -6.177641 -6.585487 -60.286180 -0.000003 0.000004 0.000006 -0.000001 0.000001 0.000001 -5.286450 4.624235 -73.484680 0.757949 -3.521240 -58.282858 -0.000009 -0.000005 0.000002 0.000000 -0.000000 -0.000000 -16.248800 1.424875 -86.150576 2.608805 -7.577993 -55.784727 -0.000000 0.000000 0.000001 0.000001 -0.000000 0.000001 14.872342 -2.513749 -2.598827 5.230413 33.882796 41.970481 -3.799268 118.571169 -0.026191 -34.919219 -20.775357 9.613846 15.407479 -4.518722 17.010987 11.550413 4.015420 -20.411412 -0.000003 -0.000010 -0.000016 0.000001 0.000000 0.000002 1.857059 -0.976117 4.781780 -1.775919 -0.095298 22.317051 -0.000001 0.000000 -0.000002 -0.000001 0.000001 -0.000002 3.631161 5.779709 48.858819 -9.397594 -0.919659 110.759782 0.000000 -0.000000 -0.000002 -0.000001 0.000000 -0.000000 -8.676851 -5.659713 54.892314 -4.714162 8.864039 96.803773 0.000001 -0.000001 0.000002 0.000002 0.000001 0.000000 -12.562947 0.077596 69.885300 -3.484600 14.093095 79.770544 0.000005 0.000000 0.000001 0.000001 0.000001 -0.000001 -18.528333 40.792943 8.316712 33.742869 7.920063 -1.251348 -3.729474 -4.243342 -2.687364 0.315485 -0.022679 -0.554239 -0.000000 0.000001 -0.000000 -2.382693 10.161211 -27.873184 47.683135 -0.183265 2.447207 -32.222527 -19.871573 11.539322 -0.342802 -0.186025 0.444774 -0.000000 0.000002 0.000000 
0.589330 84.534843 -3.228956 -6.696712 -37.507291 10.716304 2.346068 0.524082 0.328266 4.673481 0.549872 2.485086 4.673477 0.549869 2.485087 1.925450 25.478697 -5.471843 -6.694985 10.919740 -2.891429 0.000001 0.000000 -0.000000 -19.507235 6.535318 -2.001615 -0.744335 -24.297203 -78.159378 -30.343949 -70.828160 -31.592067 -97.884431 -29.457851 21.419506 2.972784 1.098077 -3.917841 1.252888 4.302584 1.889374 -0.000001 0.000004 -0.000002 0.000001 0.000001 -0.000000 7.554887 5.560382 -33.410386 -14.917809 -6.767411 -80.641885 -0.000001 -0.000016 -0.000001 0.000002 0.000000 -0.000000 -0.349206 -1.566803 -62.979235 -6.177639 -6.585488 -60.286180 -0.000001 0.000006 0.000006 -0.000000 0.000000 -0.000000 -5.286449 4.624231 -73.484687 0.757946 -3.521238 -58.282851 -0.000011 -0.000004 0.000001 -0.000002 0.000001 -0.000001 -16.248800 1.424873 -86.150583 2.608801 -7.577993 -55.784727 0.000000 0.000001 0.000003 -0.000001 0.000000 0.000003 14.841414 -2.390375 -2.826587 5.190634 35.336380 41.975238 -2.912892 118.082428 -0.710310 -36.337006 -20.413217 7.597616 15.407478 -4.518722 17.010989 11.550413 4.015421 -20.411421 -0.000001 -0.000011 -0.000014 -0.000001 -0.000000 0.000003 1.857060 -0.976117 4.781780 -1.775918 -0.095298 22.317052 -0.000001 0.000001 -0.000004 0.000001 0.000000 -0.000001 3.631161 5.779710 48.858816 -9.397595 -0.919658 110.759782 0.000002 0.000002 -0.000001 -0.000000 0.000001 -0.000000 -8.676854 -5.659714 54.892314 -4.714162 8.864035 96.803773 -0.000000 -0.000003 0.000002 -0.000000 -0.000001 0.000001 -12.562948 0.077597 69.885300 -3.484603 14.093095 79.770544 -0.000003 0.000001 -0.000001 -0.000000 0.000001 -0.000002 -18.563271 40.866101 9.504936 32.353103 7.650404 -1.218075 -3.671263 -3.024492 -3.028264 0.260391 -0.023195 -0.508128 -0.000000 0.000000 -0.000000 -2.965672 9.514355 -26.320730 44.895974 0.221992 2.282770 -30.147765 -19.293558 11.291125 -0.077692 -0.186764 0.446243 0.000000 0.000000 -0.000000 
0.879207 85.671806 -2.820269 -6.104719 -38.684337 9.396634 2.522105 0.405611 0.094887 5.031709 0.391289 1.950290 5.031703 0.391293 1.950285 1.499177 25.623431 -5.243168 -8.143102 11.739956 -2.477431 -0.000000 0.000000 -0.000001 -19.442806 6.649427 -2.303474 -0.992657 -23.785417 -77.343983 -28.749765 -71.445732 -29.984810 -97.624550 -28.394346 22.782417 2.930526 0.877872 -3.862601 1.252888 4.302582 1.889373 -0.000003 0.000001 -0.000003 -0.000000 0.000002 0.000000 7.554891 5.560385 -33.410386 -14.917808 -6.767418 -80.641892 -0.000003 -0.000016 -0.000002 0.000000 -0.000000 0.000000 -0.349208 -1.566802 -62.979235 -6.177639 -6.585489 -60.286180 -0.000002 0.000006 0.000006 0.000000 0.000001 -0.000001 -5.286448 4.624232 -73.484687 0.757949 -3.521240 -58.282844 -0.000006 -0.000004 0.000002 0.000001 0.000000 -0.000000 -16.248800 1.424876 -86.150576 2.608806 -7.577994 -55.784730 -0.000000 -0.000000 -0.000001 -0.000001 -0.000001 0.000001 14.818375 -2.193540 -2.916007 4.634570 36.296708 42.485566 -2.565235 117.605831 -0.834949 -37.030830 -20.110927 6.417452 15.407481 -4.518723 17.010987 11.550416 4.015421 -20.411418 -0.000001 -0.000012 -0.000017 -0.000001 -0.000000 0.000000 1.857062 -0.976118 4.781782 -1.775916 -0.095297 22.317049 -0.000000 0.000002 -0.000004 0.000001 0.000001 -0.000003 3.631163 5.779709 48.858812 -9.397593 -0.919659 110.759782 0.000003 0.000002 -0.000001 0.000001 0.000001 -0.000000 -8.676849 -5.659714 54.892308 -4.714163 8.864033 96.803773 0.000003 -0.000002 0.000003 0.000000 -0.000003 0.000001 -12.562945 0.077595 69.885300 -3.484603 14.093090 79.770544 0.000002 -0.000001 0.000002 0.000005 0.000000 0.000000 -18.762267 41.219263 10.759820 30.955930 7.397492 -1.181305 -3.611999 -2.180978 -3.259869 0.233487 -0.024364 -0.364858 -0.000000 0.000000 -0.000000 -3.457827 8.755812 -24.785682 42.042939 0.587661 2.122208 -28.075981 -18.778304 11.060955 0.063447 -0.187191 0.447023 0.000000 -0.000002 -0.000000 
1.178653 86.749870 -2.440119 -5.569699 -39.741756 8.060611 2.644555 0.319259 -0.121006 5.280665 0.284374 1.424085 5.280668 0.284370 1.424083 1.101115 25.781082 -5.012523 -9.376692 12.579848 -1.922805 -0.000000 0.000000 -0.000001 -19.387297 6.749783 -2.557435 -1.439684 -23.187270 -76.780410 -27.257820 -71.719623 -28.638736 -97.552245 -27.593211 23.371832 3.007069 1.326794 -4.155893 1.252888 4.302581 1.889372 -0.000002 0.000003 -0.000003 0.000001 0.000000 0.000001 7.554891 5.560379 -33.410386 -14.917806 -6.767411 -80.641892 -0.000006 -0.000015 -0.000001 -0.000001 0.000000 0.000000 -0.349207 -1.566801 -62.979235 -6.177643 -6.585484 -60.286180 -0.000000 0.000005 0.000006 -0.000002 0.000001 -0.000001 -5.286446 4.624231 -73.484680 0.757951 -3.521239 -58.282858 -0.000009 -0.000004 -0.000001 0.000001 0.000000 -0.000000 -16.248798 1.424872 -86.150583 2.608807 -7.577995 -55.784730 -0.000002 -0.000000 0.000000 -0.000001 -0.000001 0.000000 14.802774 -1.950597 -2.889302 3.988789 36.944688 42.982695 -2.706862 117.144697 -0.571759 -37.330481 -19.841090 5.776068 15.407476 -4.518722 17.010993 11.550413 4.015421 -20.411414 -0.000001 -0.000012 -0.000013 0.000001 0.000000 0.000002 1.857057 -0.976117 4.781781 -1.775916 -0.095299 22.317051 0.000001 0.000000 -0.000002 -0.000000 -0.000000 -0.000001 3.631159 5.779709 48.858816 -9.397594 -0.919659 110.759782 0.000002 0.000001 -0.000001 -0.000001 -0.000002 0.000000 -8.676854 -5.659712 54.892311 -4.714165 8.864035 96.803773 0.000000 -0.000001 0.000002 0.000000 0.000000 -0.000001 -12.562950 0.077597 69.885307 -3.484601 14.093096 79.770544 -0.000000 0.000002 -0.000000 0.000003 0.000002 -0.000001 -19.111870 41.703161 12.130384 29.645900 7.150078 -1.138071 -3.594327 -1.579770 -3.460303 0.236234 -0.025582 -0.113304 -0.000000 0.000001 0.000000 -3.817722 7.973950 -23.229893 39.242876 0.874716 1.966161 -25.947607 -18.309044 10.861299 0.043295 -0.187151 0.446912 -0.000000 0.000003 -0.000000 
